{
	"asset":{
		"generator":"Khronos glTF Blender I/O v4.5.51",
		"version":"2.0"
	},
	"extensionsUsed":[
		"KHR_materials_unlit"
	],
	"scene":0,
	"scenes":[
		{
			"name":"Scene",
			"nodes":[
				9,
				10
			]
		}
	],
	"nodes":[
		{
			"mesh":0,
			"name":"Getty_01_Ceiling_u3_GEO"
		},
		{
			"mesh":1,
			"name":"Getty_01_Floor_u2_GEO"
		},
		{
			"mesh":2,
			"name":"Getty_01_Frames_u8_GEO"
		},
		{
			"mesh":3,
			"name":"Getty_01_Outside_u1_GEO"
		},
		{
			"mesh":4,
			"name":"Getty_01_RoomA_u4_GEO"
		},
		{
			"mesh":5,
			"name":"Getty_01_RoomB_u5_GEO"
		},
		{
			"mesh":6,
			"name":"Getty_01_RoomC_u6_GEO"
		},
		{
			"mesh":7,
			"name":"Getty_01_RoomD_u7_GEO"
		},
		{
			"children":[
				0,
				1,
				2,
				3,
				4,
				5,
				6,
				7
			],
			"name":"Vray_Getty_01_GRP"
		},
		{
			"children":[
				8
			],
			"name":"Getty_01_GRP",
			"rotation":[
				0.70710688829422,
				0,
				0,
				0.7071066498756409
			],
			"scale":[
				0.009999999776482582,
				0.009999998845160007,
				0.009999998845160007
			]
		},
		{
			"mesh":8,
			"name":"Logo",
			"translation":[
				4.536637783050537,
				6.382533550262451,
				-0.022671833634376526
			]
		}
	],
	"animations":[
		{
			"channels":[
				{
					"sampler":0,
					"target":{
						"node":9,
						"path":"translation"
					}
				},
				{
					"sampler":1,
					"target":{
						"node":9,
						"path":"rotation"
					}
				},
				{
					"sampler":2,
					"target":{
						"node":9,
						"path":"scale"
					}
				}
			],
			"name":"Getty_01_GRP|Take 001|BaseLayer.001",
			"samplers":[
				{
					"input":36,
					"interpolation":"LINEAR",
					"output":37
				},
				{
					"input":36,
					"interpolation":"LINEAR",
					"output":38
				},
				{
					"input":36,
					"interpolation":"LINEAR",
					"output":39
				}
			]
		}
	],
	"materials":[
		{
			"doubleSided":true,
			"extensions":{
				"KHR_materials_unlit":{}
			},
			"name":"Getty_01_Ceiling_u3_GEOShape_bakedmtl1.001",
			"pbrMetallicRoughness":{
				"baseColorTexture":{
					"index":0
				},
				"metallicFactor":0,
				"roughnessFactor":0.9
			}
		},
		{
			"doubleSided":true,
			"extensions":{
				"KHR_materials_unlit":{}
			},
			"name":"Getty_01_Floor_u2_GEOShape_bakedmtl1.001",
			"pbrMetallicRoughness":{
				"baseColorTexture":{
					"index":1
				},
				"metallicFactor":0,
				"roughnessFactor":0.9
			}
		},
		{
			"doubleSided":true,
			"extensions":{
				"KHR_materials_unlit":{}
			},
			"name":"Getty_Frames_u8_GEOShape_bakedmtl.001",
			"pbrMetallicRoughness":{
				"baseColorTexture":{
					"index":2
				},
				"metallicFactor":0,
				"roughnessFactor":0.9
			}
		},
		{
			"doubleSided":true,
			"extensions":{
				"KHR_materials_unlit":{}
			},
			"name":"Getty_01_Outside_u1_GEOShape_bakedmtl2.001",
			"pbrMetallicRoughness":{
				"baseColorTexture":{
					"index":3
				},
				"metallicFactor":0,
				"roughnessFactor":0.9
			}
		},
		{
			"doubleSided":true,
			"extensions":{
				"KHR_materials_unlit":{}
			},
			"name":"Getty_01_RoomA_u4_GEOShape_bakedmtl3.001",
			"pbrMetallicRoughness":{
				"baseColorTexture":{
					"index":4
				},
				"metallicFactor":0,
				"roughnessFactor":0.9
			}
		},
		{
			"doubleSided":true,
			"extensions":{
				"KHR_materials_unlit":{}
			},
			"name":"Getty_01_RoomB_u5_GEOShape_bakedmtl4.001",
			"pbrMetallicRoughness":{
				"baseColorTexture":{
					"index":5
				},
				"metallicFactor":0,
				"roughnessFactor":0.9
			}
		},
		{
			"doubleSided":true,
			"extensions":{
				"KHR_materials_unlit":{}
			},
			"name":"Getty_01_RoomC_u6_GEOShape_bakedmtl5.002",
			"pbrMetallicRoughness":{
				"baseColorTexture":{
					"index":6
				},
				"metallicFactor":0,
				"roughnessFactor":0.9
			}
		},
		{
			"doubleSided":true,
			"extensions":{
				"KHR_materials_unlit":{}
			},
			"name":"Getty_01_RoomD_u7_GEOShape_bakedmtl3.001",
			"pbrMetallicRoughness":{
				"baseColorTexture":{
					"index":7
				},
				"metallicFactor":0,
				"roughnessFactor":0.9
			}
		},
		{
			"doubleSided":true,
			"name":"Material.002",
			"pbrMetallicRoughness":{
				"baseColorTexture":{
					"index":8
				},
				"metallicFactor":0,
				"roughnessFactor":0.5
			}
		}
	],
	"meshes":[
		{
			"name":"Mesh.001",
			"primitives":[
				{
					"attributes":{
						"POSITION":0,
						"NORMAL":1,
						"TEXCOORD_0":2
					},
					"indices":3,
					"material":0
				}
			]
		},
		{
			"name":"Mesh.002",
			"primitives":[
				{
					"attributes":{
						"POSITION":4,
						"NORMAL":5,
						"TEXCOORD_0":6
					},
					"indices":7,
					"material":1
				}
			]
		},
		{
			"name":"Mesh.003",
			"primitives":[
				{
					"attributes":{
						"POSITION":8,
						"NORMAL":9,
						"TEXCOORD_0":10
					},
					"indices":11,
					"material":2
				}
			]
		},
		{
			"name":"Mesh.004",
			"primitives":[
				{
					"attributes":{
						"POSITION":12,
						"NORMAL":13,
						"TEXCOORD_0":14
					},
					"indices":15,
					"material":3
				}
			]
		},
		{
			"name":"Mesh.005",
			"primitives":[
				{
					"attributes":{
						"POSITION":16,
						"NORMAL":17,
						"TEXCOORD_0":18
					},
					"indices":19,
					"material":4
				}
			]
		},
		{
			"name":"Mesh.006",
			"primitives":[
				{
					"attributes":{
						"POSITION":20,
						"NORMAL":21,
						"TEXCOORD_0":22
					},
					"indices":23,
					"material":5
				}
			]
		},
		{
			"name":"Mesh.007",
			"primitives":[
				{
					"attributes":{
						"POSITION":24,
						"NORMAL":25,
						"TEXCOORD_0":26
					},
					"indices":27,
					"material":6
				}
			]
		},
		{
			"name":"Mesh.008",
			"primitives":[
				{
					"attributes":{
						"POSITION":28,
						"NORMAL":29,
						"TEXCOORD_0":30
					},
					"indices":31,
					"material":7
				}
			]
		},
		{
			"name":"Plane.001",
			"primitives":[
				{
					"attributes":{
						"POSITION":32,
						"NORMAL":33,
						"TEXCOORD_0":34
					},
					"indices":35,
					"material":8
				}
			]
		}
	],
	"textures":[
		{
			"sampler":0,
			"source":0
		},
		{
			"sampler":0,
			"source":1
		},
		{
			"sampler":0,
			"source":2
		},
		{
			"sampler":0,
			"source":3
		},
		{
			"sampler":0,
			"source":4
		},
		{
			"sampler":0,
			"source":5
		},
		{
			"sampler":0,
			"source":6
		},
		{
			"sampler":0,
			"source":7
		},
		{
			"sampler":0,
			"source":8
		}
	],
	"images":[
		{
			"mimeType":"image/jpeg",
			"name":"baked-Getty_01_Ceiling_u3_GEOShape",
			"uri":"baked-Getty_01_Ceiling_u3_GEOShape.jpg"
		},
		{
			"mimeType":"image/jpeg",
			"name":"baked-Getty_01_Floor_u2_GEOShape",
			"uri":"baked-Getty_01_Floor_u2_GEOShape.jpg"
		},
		{
			"mimeType":"image/jpeg",
			"name":"baked-Getty_Frames_u8_GEOShape_effectsResult",
			"uri":"baked-Getty_Frames_u8_GEOShape_effectsResult.jpg"
		},
		{
			"mimeType":"image/jpeg",
			"name":"baked-Getty_01_Outside_u1_GEOShape",
			"uri":"baked-Getty_01_Outside_u1_GEOShape.jpg"
		},
		{
			"mimeType":"image/jpeg",
			"name":"baked-Getty_01_RoomA_u4_GEOShape",
			"uri":"baked-Getty_01_RoomA_u4_GEOShape.jpg"
		},
		{
			"mimeType":"image/jpeg",
			"name":"baked-Getty_01_RoomB_u5_GEOShape",
			"uri":"baked-Getty_01_RoomB_u5_GEOShape.jpg"
		},
		{
			"mimeType":"image/jpeg",
			"name":"baked-Getty_01_RoomC_u6_GEOShape_effectsResult",
			"uri":"baked-Getty_01_RoomC_u6_GEOShape_effectsResult.jpg"
		},
		{
			"mimeType":"image/jpeg",
			"name":"baked-Getty_01_RoomD_u7_GEOShape",
			"uri":"baked-Getty_01_RoomD_u7_GEOShape.jpg"
		},
		{
			"mimeType":"image/png",
			"name":"\u622a\u5c4f2026-03-22 12.29.51",
			"uri":"%E6%88%AA%E5%B1%8F2026-03-22%2012.29.51.png"
		}
	],
	"accessors":[
		{
			"bufferView":0,
			"componentType":5126,
			"count":102,
			"max":[
				1150.1123046875,
				999.9990234375,
				-849.9996337890625
			],
			"min":[
				-1150,
				-1050.0048828125,
				-1400
			],
			"type":"VEC3"
		},
		{
			"bufferView":1,
			"componentType":5126,
			"count":102,
			"type":"VEC3"
		},
		{
			"bufferView":2,
			"componentType":5126,
			"count":102,
			"type":"VEC2"
		},
		{
			"bufferView":3,
			"componentType":5123,
			"count":366,
			"type":"SCALAR"
		},
		{
			"bufferView":4,
			"componentType":5126,
			"count":41,
			"max":[
				1250.0008544921875,
				999.9998779296875,
				-200.00050354003906
			],
			"min":[
				-1149.999755859375,
				-1050.00048828125,
				-200.00094604492188
			],
			"type":"VEC3"
		},
		{
			"bufferView":5,
			"componentType":5126,
			"count":41,
			"type":"VEC3"
		},
		{
			"bufferView":6,
			"componentType":5126,
			"count":41,
			"type":"VEC2"
		},
		{
			"bufferView":7,
			"componentType":5123,
			"count":108,
			"type":"SCALAR"
		},
		{
			"bufferView":8,
			"componentType":5126,
			"count":1733,
			"max":[
				1151.4144287109375,
				1003.1155395507812,
				-232.89981079101562
			],
			"min":[
				-1158.288818359375,
				-1052.253662109375,
				-555.999755859375
			],
			"type":"VEC3"
		},
		{
			"bufferView":9,
			"componentType":5126,
			"count":1733,
			"type":"VEC3"
		},
		{
			"bufferView":10,
			"componentType":5126,
			"count":1733,
			"type":"VEC2"
		},
		{
			"bufferView":11,
			"componentType":5123,
			"count":2520,
			"type":"SCALAR"
		},
		{
			"bufferView":12,
			"componentType":5126,
			"count":437,
			"max":[
				1250.0009765625,
				1250.00048828125,
				0.00020365085219964385
			],
			"min":[
				-1250,
				-1250.0048828125,
				-2000.0003662109375
			],
			"type":"VEC3"
		},
		{
			"bufferView":13,
			"componentType":5126,
			"count":437,
			"type":"VEC3"
		},
		{
			"bufferView":14,
			"componentType":5126,
			"count":437,
			"type":"VEC2"
		},
		{
			"bufferView":15,
			"componentType":5123,
			"count":1272,
			"type":"SCALAR"
		},
		{
			"bufferView":16,
			"componentType":5126,
			"count":30,
			"max":[
				1150.1123046875,
				549.99951171875,
				-199.9990692138672
			],
			"min":[
				250,
				-500.001953125,
				-1099.999755859375
			],
			"type":"VEC3"
		},
		{
			"bufferView":17,
			"componentType":5126,
			"count":30,
			"type":"VEC3"
		},
		{
			"bufferView":18,
			"componentType":5126,
			"count":30,
			"type":"VEC2"
		},
		{
			"bufferView":19,
			"componentType":5123,
			"count":60,
			"type":"SCALAR"
		},
		{
			"bufferView":20,
			"componentType":5126,
			"count":44,
			"max":[
				450.010498046875,
				999.9996337890625,
				-199.9996795654297
			],
			"min":[
				-450.0001525878906,
				199.9983367919922,
				-1399.999755859375
			],
			"type":"VEC3"
		},
		{
			"bufferView":21,
			"componentType":5126,
			"count":44,
			"type":"VEC3"
		},
		{
			"bufferView":22,
			"componentType":5126,
			"count":44,
			"type":"VEC2"
		},
		{
			"bufferView":23,
			"componentType":5123,
			"count":90,
			"type":"SCALAR"
		},
		{
			"bufferView":24,
			"componentType":5126,
			"count":39,
			"max":[
				-349.9982604980469,
				400.0003356933594,
				-199.9994659423828
			],
			"min":[
				-1150.0001220703125,
				-500.001953125,
				-1399.999755859375
			],
			"type":"VEC3"
		},
		{
			"bufferView":25,
			"componentType":5126,
			"count":39,
			"type":"VEC3"
		},
		{
			"bufferView":26,
			"componentType":5126,
			"count":39,
			"type":"VEC2"
		},
		{
			"bufferView":27,
			"componentType":5123,
			"count":90,
			"type":"SCALAR"
		},
		{
			"bufferView":28,
			"componentType":5126,
			"count":30,
			"max":[
				449.9998474121094,
				-200.00051879882812,
				-199.9994659423828
			],
			"min":[
				-450.0001525878906,
				-1050.0050048828125,
				-850.0001220703125
			],
			"type":"VEC3"
		},
		{
			"bufferView":29,
			"componentType":5126,
			"count":30,
			"type":"VEC3"
		},
		{
			"bufferView":30,
			"componentType":5126,
			"count":30,
			"type":"VEC2"
		},
		{
			"bufferView":31,
			"componentType":5123,
			"count":66,
			"type":"SCALAR"
		},
		{
			"bufferView":32,
			"componentType":5126,
			"count":4,
			"max":[
				4.371138828673793e-08,
				1,
				1
			],
			"min":[
				-4.371138828673793e-08,
				-1,
				-1
			],
			"type":"VEC3"
		},
		{
			"bufferView":33,
			"componentType":5126,
			"count":4,
			"type":"VEC3"
		},
		{
			"bufferView":34,
			"componentType":5126,
			"count":4,
			"type":"VEC2"
		},
		{
			"bufferView":35,
			"componentType":5123,
			"count":6,
			"type":"SCALAR"
		},
		{
			"bufferView":36,
			"componentType":5126,
			"count":1,
			"max":[
				0.041666666666666664
			],
			"min":[
				0.041666666666666664
			],
			"type":"SCALAR"
		},
		{
			"bufferView":37,
			"componentType":5126,
			"count":1,
			"type":"VEC3"
		},
		{
			"bufferView":38,
			"componentType":5126,
			"count":1,
			"type":"VEC4"
		},
		{
			"bufferView":39,
			"componentType":5126,
			"count":1,
			"type":"VEC3"
		}
	],
	"bufferViews":[
		{
			"buffer":0,
			"byteLength":1224,
			"byteOffset":0,
			"target":34962
		},
		{
			"buffer":0,
			"byteLength":1224,
			"byteOffset":1224,
			"target":34962
		},
		{
			"buffer":0,
			"byteLength":816,
			"byteOffset":2448,
			"target":34962
		},
		{
			"buffer":0,
			"byteLength":732,
			"byteOffset":3264,
			"target":34963
		},
		{
			"buffer":0,
			"byteLength":492,
			"byteOffset":3996,
			"target":34962
		},
		{
			"buffer":0,
			"byteLength":492,
			"byteOffset":4488,
			"target":34962
		},
		{
			"buffer":0,
			"byteLength":328,
			"byteOffset":4980,
			"target":34962
		},
		{
			"buffer":0,
			"byteLength":216,
			"byteOffset":5308,
			"target":34963
		},
		{
			"buffer":0,
			"byteLength":20796,
			"byteOffset":5524,
			"target":34962
		},
		{
			"buffer":0,
			"byteLength":20796,
			"byteOffset":26320,
			"target":34962
		},
		{
			"buffer":0,
			"byteLength":13864,
			"byteOffset":47116,
			"target":34962
		},
		{
			"buffer":0,
			"byteLength":5040,
			"byteOffset":60980,
			"target":34963
		},
		{
			"buffer":0,
			"byteLength":5244,
			"byteOffset":66020,
			"target":34962
		},
		{
			"buffer":0,
			"byteLength":5244,
			"byteOffset":71264,
			"target":34962
		},
		{
			"buffer":0,
			"byteLength":3496,
			"byteOffset":76508,
			"target":34962
		},
		{
			"buffer":0,
			"byteLength":2544,
			"byteOffset":80004,
			"target":34963
		},
		{
			"buffer":0,
			"byteLength":360,
			"byteOffset":82548,
			"target":34962
		},
		{
			"buffer":0,
			"byteLength":360,
			"byteOffset":82908,
			"target":34962
		},
		{
			"buffer":0,
			"byteLength":240,
			"byteOffset":83268,
			"target":34962
		},
		{
			"buffer":0,
			"byteLength":120,
			"byteOffset":83508,
			"target":34963
		},
		{
			"buffer":0,
			"byteLength":528,
			"byteOffset":83628,
			"target":34962
		},
		{
			"buffer":0,
			"byteLength":528,
			"byteOffset":84156,
			"target":34962
		},
		{
			"buffer":0,
			"byteLength":352,
			"byteOffset":84684,
			"target":34962
		},
		{
			"buffer":0,
			"byteLength":180,
			"byteOffset":85036,
			"target":34963
		},
		{
			"buffer":0,
			"byteLength":468,
			"byteOffset":85216,
			"target":34962
		},
		{
			"buffer":0,
			"byteLength":468,
			"byteOffset":85684,
			"target":34962
		},
		{
			"buffer":0,
			"byteLength":312,
			"byteOffset":86152,
			"target":34962
		},
		{
			"buffer":0,
			"byteLength":180,
			"byteOffset":86464,
			"target":34963
		},
		{
			"buffer":0,
			"byteLength":360,
			"byteOffset":86644,
			"target":34962
		},
		{
			"buffer":0,
			"byteLength":360,
			"byteOffset":87004,
			"target":34962
		},
		{
			"buffer":0,
			"byteLength":240,
			"byteOffset":87364,
			"target":34962
		},
		{
			"buffer":0,
			"byteLength":132,
			"byteOffset":87604,
			"target":34963
		},
		{
			"buffer":0,
			"byteLength":48,
			"byteOffset":87736,
			"target":34962
		},
		{
			"buffer":0,
			"byteLength":48,
			"byteOffset":87784,
			"target":34962
		},
		{
			"buffer":0,
			"byteLength":32,
			"byteOffset":87832,
			"target":34962
		},
		{
			"buffer":0,
			"byteLength":12,
			"byteOffset":87864,
			"target":34963
		},
		{
			"buffer":0,
			"byteLength":4,
			"byteOffset":87876
		},
		{
			"buffer":0,
			"byteLength":12,
			"byteOffset":87880
		},
		{
			"buffer":0,
			"byteLength":16,
			"byteOffset":87892
		},
		{
			"buffer":0,
			"byteLength":12,
			"byteOffset":87908
		}
	],
	"samplers":[
		{
			"magFilter":9729,
			"minFilter":9987
		}
	],
	"buffers":[
		{
			"byteLength":87920,
			"uri":"copyed-gallery.bin"
		}
	]
}
